# 3ds Max Wavefront OBJ Exporter v0.97b - (c)2007 guruware
# File Created: 01.07.2019 00:38:45

mtllib Knife_Gun.mtl

#
# object Box001
#

v  -0.9181 -21.9063 1.0094
v  13.8523 -18.0902 -0.0000
v  13.5134 -26.4330 -0.0000
v  -1.8613 -26.1950 1.0094
v  -10.0000 2.4090 0.0000
v  4.6000 8.3195 0.0000
v  4.7617 3.4129 -0.0000
v  -8.1395 -2.5796 1.0094
v  13.5582 -26.4448 12.0906
v  13.8440 -18.0996 12.0906
v  -0.9263 -21.9157 11.1018
v  -1.6732 -26.2135 11.1018
v  4.7535 3.4036 12.0906
v  4.5918 8.3102 12.0906
v  -10.0082 2.3996 12.0906
v  -8.1477 -2.5889 11.1018
v  13.5532 -26.4348 6.1699
v  -2.9758 -26.2018 6.1596
v  19.7819 -16.6788 0.6831
v  21.4942 -16.6788 6.1699
v  21.3789 -26.5210 6.1699
v  19.6666 -26.5210 0.6831
v  22.7085 18.4317 1.2793
v  22.7085 18.4317 6.1524
v  21.7490 12.3297 6.1524
v  21.7490 12.3297 1.2793
v  4.6000 30.0000 0.9791
v  4.6000 30.0000 6.1557
v  10.0000 30.0000 6.1557
v  10.0000 30.0000 0.9791
v  -65.7220 24.9887 0.0052
v  -65.7220 24.9887 5.0000
v  -65.7220 30.0000 5.8406
v  -65.7220 30.0000 0.9791
v  -4.3219 -12.6473 1.0094
v  -5.5836 -12.6473 6.1596
v  -7.5497 -7.5347 6.1596
v  -6.2880 -7.5347 1.0094
v  10.0000 10.5056 0.0000
v  10.0000 5.6293 -0.0000
v  21.9853 28.3594 6.1524
v  21.9853 28.3594 1.2793
v  9.9918 29.9906 11.1233
v  9.9918 24.9718 12.0906
v  22.6772 23.5920 10.8288
v  21.9771 28.3501 10.8288
v  -10.0000 24.9066 0.0000
v  4.6000 24.9611 0.0000
v  4.6000 13.2305 0.0000
v  -16.5505 10.3391 0.0000
v  -11.8171 6.9761 0.0000
v  9.9918 15.9278 12.0906
v  4.5918 24.9517 12.0906
v  4.5918 13.2211 12.0906
v  -10.0000 2.4090 7.3398
v  -11.8171 6.9761 7.3398
v  10.0000 15.9371 0.0000
v  10.0000 24.9812 0.0000
v  22.6854 23.6013 1.2793
v  9.9918 10.4963 12.0906
v  22.7003 18.4223 10.8288
v  -10.0082 24.8972 12.0906
v  -26.5562 24.8972 12.0906
v  -26.5562 11.2388 12.0906
v  -16.5587 10.3297 12.0906
v  -26.5480 24.9066 0.0000
v  -26.5480 30.0000 0.9791
v  -10.0000 30.0000 0.9791
v  -16.5505 10.3391 7.3398
v  -26.5480 11.2482 7.3398
v  -26.5480 11.2482 0.0000
v  -60.5668 29.9906 11.1285
v  -60.5668 24.9793 12.0958
v  -31.6457 24.9793 12.0906
v  -31.6457 29.9906 11.1233
v  -60.5586 30.0000 0.9791
v  -60.5586 30.0000 6.1557
v  -31.6375 30.0000 6.1557
v  -31.6375 30.0000 0.9791
v  -58.7699 11.7030 1.2442
v  -60.5586 20.0008 0.0052
v  -31.6375 20.0008 0.0000
v  -31.6375 11.2482 1.2390
v  -26.5562 29.9906 11.1233
v  -26.5480 30.0000 6.1557
v  22.6854 23.6013 6.1524
v  9.9918 5.6200 12.0906
v  21.7408 12.3203 10.8288
v  -29.1373 0.9945 1.8750
v  -25.1847 4.9525 1.8750
v  -9.4012 -2.5796 6.1596
v  -29.1373 0.9945 6.0304
v  -25.1929 4.9432 10.2156
v  -29.1455 0.9851 10.2156
v  -25.1847 4.9525 5.4648
v  -31.6375 11.2482 6.1699
v  -31.6457 11.2388 10.8516
v  7.0924 -2.1002 -0.0000
v  9.6775 -7.8410 -0.0000
v  12.4998 -0.0996 11.4075
v  7.0842 -2.1096 12.0906
v  9.6693 -7.8504 12.0906
v  15.3188 -6.1128 11.4075
v  12.5080 -0.0902 0.6831
v  14.2202 -0.0902 6.1699
v  17.0392 -6.1034 6.1699
v  15.3270 -6.1034 0.6831
v  -2.1798 -21.9063 6.1596
v  -65.7302 29.9906 11.1285
v  -65.7302 24.9793 12.0958
v  -63.8208 11.7030 1.2442
v  -65.4794 20.0008 0.0052
v  -58.7699 11.7030 6.1751
v  -63.8208 11.7030 6.6329
v  -63.8208 11.7030 5.7173
v  -65.0029 16.5707 5.0052
v  4.5918 29.9906 11.1233
v  -10.0082 29.9906 11.1233
v  -58.7781 11.6936 10.8568
v  -31.6457 19.9915 12.0906
v  -60.5668 19.9915 12.0958
v  -60.5586 24.9887 0.0052
v  -31.6375 24.9887 0.0000
v  -63.8291 11.6936 10.8568
v  -65.4876 19.9915 12.0958
v  -112.4388 21.5795 6.5949
v  -115.4686 25.2734 6.4992
v  -115.4686 25.2734 5.8406
v  -112.4388 21.5795 5.7449
v  11.4264 5.7300 6.2399
v  -10.0000 30.0000 6.1557
v  -65.7220 30.0000 6.5044
v  -101.6884 15.1168 6.6277
v  -108.1754 18.2086 6.5642
v  -108.1754 18.2086 5.7756
v  -101.6884 15.1168 5.7121
v  19.7737 -16.6881 11.4075
v  19.6584 -26.5304 11.4075
v  -65.7220 24.9887 7.3450
v  -65.0029 16.5707 7.3450
v  -4.3302 -12.6567 11.1018
v  -6.2962 -7.5441 11.1018
v  -11.8253 6.9667 12.0906
v  -84.7261 17.2269 7.3398
v  -81.9308 12.3908 6.6277
v  -87.8975 24.2257 7.3398
v  -87.1518 28.8020 6.4992
v  -87.1518 28.8020 5.8406
v  -87.8975 24.2257 5.0000
v  -84.7261 17.2269 5.0000
v  -81.9308 12.3908 5.7121
v  -95.5391 17.7663 7.3398
v  -92.1185 13.0833 6.6277
v  -98.7761 23.5870 7.3398
v  -100.1852 27.7837 6.4992
v  -100.1852 27.7837 5.8406
v  -98.7761 23.5870 5.0000
v  -95.5391 17.7663 5.0000
v  -92.1185 13.0833 5.7121
v  -102.2266 19.2758 7.2379
v  -97.7884 14.1712 6.6277
v  -107.6021 22.2840 6.8780
v  -109.9874 26.3321 6.4992
v  -109.9874 26.3321 5.8406
v  -107.6021 22.2840 5.4618
v  -102.2266 19.2758 5.1019
v  -97.7884 14.1712 5.7121
v  -2.6200 -17.2768 1.0094
v  -3.8817 -17.2768 6.1596
v  11.7649 -12.9656 -0.0000
v  11.7567 -12.9750 12.0906
v  17.5462 -11.4004 11.4075
v  19.2667 -11.3911 6.1699
v  17.5545 -11.3911 0.6831
v  -2.6282 -17.2862 11.1018
# 175 vertices

vn -0.0676 0.0069 -0.9977
vn -0.0292 -0.1225 -0.9920
vn -0.0000 0.0000 -1.0000
vn 0.0015 -0.0228 -0.9997
vn -0.4577 -0.3173 -0.8306
vn -0.0664 0.0054 0.9978
vn 0.0015 -0.0223 0.9998
vn 0.0000 -0.0000 1.0000
vn -0.0602 -0.1461 0.9874
vn -0.4713 -0.3009 0.8291
vn -0.0148 -0.9999 -0.0022
vn 0.6638 0.1353 -0.7355
vn 0.9827 0.1853 0.0072
vn 0.9999 -0.0117 0.0076
vn 0.6366 -0.0086 -0.7712
vn 0.9971 -0.0757 -0.0000
vn 0.9971 -0.0756 0.0008
vn 0.9879 -0.1553 0.0007
vn 0.9879 -0.1553 -0.0000
vn 0.0000 1.0000 0.0000
vn 0.0000 1.0000 0.0009
vn 0.0680 0.9977 0.0010
vn 0.0674 0.9977 0.0000
vn -0.9997 -0.0259 -0.0000
vn -0.9995 -0.0318 0.0087
vn -1.0000 0.0000 -0.0000
vn -0.9125 -0.3427 -0.2235
vn -0.9359 -0.3524 0.0035
vn -0.9352 -0.3542 0.0035
vn -0.9114 -0.3458 -0.2233
vn 0.0531 -0.0011 -0.9986
vn 0.1032 -0.0048 -0.9946
vn 0.1105 -0.0146 -0.9938
vn 0.0378 0.0000 -0.9993
vn 0.1356 0.9908 0.0011
vn 0.1356 0.9908 0.0000
vn 0.0462 0.1688 0.9846
vn 0.0600 0.1889 0.9802
vn 0.0509 0.0549 0.9972
vn 0.0251 0.0037 0.9997
vn 0.0000 0.0000 -1.0000
vn 0.0333 -0.0000 0.9994
vn 0.0478 -0.0000 0.9989
vn -0.9292 -0.3697 -0.0000
vn -0.9292 -0.3697 -0.0012
vn -0.7864 -0.6178 -0.0013
vn -0.7864 -0.6177 -0.0000
vn 0.0337 0.0000 -0.9994
vn 0.0485 0.0000 -0.9988
vn 0.1003 0.0000 -0.9950
vn 0.0649 0.0000 0.9979
vn 0.0523 -0.0011 0.9986
vn 0.1018 -0.0047 0.9948
vn 0.0987 0.0004 0.9951
vn -0.0000 -0.0000 1.0000
vn -0.0082 -0.0200 0.9998
vn -0.1158 -0.0000 0.9933
vn -0.0004 0.1888 -0.9820
vn 0.0008 0.1895 -0.9819
vn 0.0000 0.1888 -0.9820
vn -0.0003 0.1890 -0.9820
vn -0.3469 -0.9379 -0.0012
vn -0.0906 -0.9959 -0.0011
vn -0.0906 -0.9959 -0.0000
vn -0.3468 -0.9379 -0.0000
vn 0.0001 0.1895 0.9819
vn 0.0016 0.1895 0.9819
vn 0.0008 0.1888 0.9820
vn -0.0000 1.0000 0.0000
vn -0.0003 -0.1469 -0.9891
vn -0.0001 -0.0741 -0.9973
vn 0.0493 -0.0874 -0.9950
vn -0.0781 -0.0868 -0.9932
vn 0.0008 0.1873 0.9823
vn 0.0000 0.1866 0.9824
vn -0.0082 -0.0200 -0.9998
vn -0.1158 0.0000 -0.9933
vn 0.9972 0.0752 -0.0000
vn 0.9972 0.0752 0.0010
vn 0.0658 0.0000 -0.9978
vn 0.1001 0.0004 -0.9950
vn 0.0373 -0.0000 0.9993
vn 0.1090 -0.0144 0.9939
vn -0.0221 -0.0162 -0.9996
vn -0.0671 -0.0109 -0.9977
vn -0.1745 -0.9847 0.0035
vn -0.1737 -0.9848 0.0021
vn -0.1768 -0.9842 -0.0065
vn -0.1693 -0.9847 -0.0415
vn 0.0896 -0.1146 0.9894
vn -0.0105 -0.0781 0.9969
vn 0.1652 0.9863 0.0000
vn -0.1159 -0.2167 -0.9693
vn -0.2239 -0.3224 -0.9197
vn -0.9715 -0.2369 -0.0000
vn -0.1148 -0.1506 0.9819
vn -0.2349 -0.1171 0.9649
vn 0.9773 0.2116 0.0000
vn -0.0636 -0.0267 -0.9976
vn 0.6095 0.2431 0.7546
vn 0.0918 0.0083 0.9957
vn 0.1064 0.0463 0.9932
vn 0.5900 0.2631 0.7633
vn 0.6121 0.2317 -0.7561
vn 0.9069 0.4211 0.0131
vn 0.9143 0.4050 0.0072
vn 0.5951 0.2654 -0.7586
vn -0.9553 0.1955 -0.2219
vn -0.9830 0.1822 0.0219
vn -0.9823 0.1869 0.0146
vn -0.9499 0.2089 -0.2327
vn 0.0000 0.1895 0.9819
vn -0.0000 -0.1477 -0.9890
vn 0.0000 -0.0680 -0.9977
vn -0.0084 -1.0000 -0.0010
vn -0.0000 -1.0000 -0.0011
vn -0.0000 -1.0000 -0.0000
vn -0.9751 -0.2206 -0.0210
vn -0.9718 -0.2360 -0.0000
vn -0.9843 -0.1763 -0.0105
vn -0.9942 -0.1079 0.0045
vn 0.0990 -0.0000 0.9951
vn 0.0000 0.1907 -0.9816
vn -0.0002 0.1907 -0.9816
vn 0.0000 0.1885 0.9821
vn -0.0002 0.1885 0.9821
vn 0.9893 0.1456 0.0000
vn 0.9893 0.1456 0.0010
vn 0.0468 0.1708 -0.9842
vn 0.0256 0.0038 -0.9997
vn 0.0516 0.0556 -0.9971
vn 0.0608 0.1911 -0.9797
vn -0.0003 0.1868 0.9824
vn -0.0003 0.1866 0.9824
vn -0.0001 -0.1469 0.9892
vn -0.0779 -0.0868 0.9932
vn 0.0495 -0.0874 0.9949
vn 0.0001 -0.0740 0.9973
vn -0.0001 0.0000 -1.0000
vn 0.0008 0.1910 -0.9816
vn 0.0015 0.1917 -0.9815
vn -0.0000 -0.1477 0.9890
vn -0.0000 -0.0680 0.9977
vn 0.0001 -0.0000 1.0000
vn -0.0001 0.1908 -0.9816
vn 0.0000 0.1908 -0.9816
vn -0.7004 -0.7138 -0.0000
vn -0.7732 -0.6342 -0.0000
vn 0.5176 -0.8536 -0.0587
vn -0.0084 -1.0000 -0.0000
vn -0.0168 -0.9999 -0.0000
vn -0.0168 -0.9999 -0.0010
vn 0.0001 1.0000 0.0011
vn -0.3345 -0.9424 -0.0000
vn -0.5285 -0.8490 -0.0000
vn -0.0146 -0.9999 -0.0002
vn 0.6583 0.1343 0.7407
vn 0.6307 -0.0083 0.7760
vn 0.5179 -0.8532 0.0613
vn 0.9971 -0.0758 0.0016
vn 0.9879 -0.1553 0.0014
vn 0.9972 0.0751 0.0019
vn 0.9893 0.1456 0.0020
vn 0.0674 0.9977 0.0020
vn 0.1357 0.9908 0.0022
vn 0.0000 1.0000 0.0019
vn 0.0001 1.0000 0.0020
vn -1.0000 -0.0003 -0.0018
vn -0.9994 -0.0316 -0.0106
vn -0.9997 -0.0261 -0.0018
vn -0.9842 -0.1767 0.0101
vn -0.9942 -0.1073 -0.0076
vn -0.9718 -0.2356 -0.0024
vn -0.9751 -0.2211 0.0189
vn -0.0084 -1.0000 -0.0021
vn -0.0000 -1.0000 -0.0022
vn -0.0168 -0.9999 -0.0020
vn -0.9716 -0.2368 -0.0023
vn -0.1767 -0.9836 0.0365
vn -0.1677 -0.9858 -0.0025
vn -0.9110 -0.3421 0.2304
vn -0.9099 -0.3452 0.2301
vn -0.9540 0.1707 0.2466
vn -0.9558 0.1661 0.2427
vn -0.9292 -0.3697 -0.0023
vn -0.7864 -0.6177 -0.0026
vn 0.1649 0.9863 0.0022
vn 0.9775 0.2110 0.0021
vn -0.3467 -0.9380 -0.0024
vn -0.0906 -0.9959 -0.0021
vn 0.1092 0.0197 -0.9938
vn 0.1103 -0.0045 -0.9939
vn 0.1093 0.0199 0.9938
vn 0.1112 -0.0038 0.9938
vn -0.0125 -0.9999 0.0017
vn 0.1064 0.0463 -0.9932
vn 0.0918 0.0083 -0.9957
vn -0.0623 -0.0261 0.9977
vn -0.0125 -0.9999 -0.0037
vn -0.0053 -0.1465 0.9892
vn -0.0051 -0.1460 0.9893
vn -0.0069 -0.1494 0.9888
vn -0.0068 -0.1501 0.9886
vn -0.0002 -0.0000 1.0000
vn -0.0047 0.0836 0.9965
vn -0.0054 0.0928 0.9957
vn -0.0002 -0.0001 1.0000
vn -0.0095 0.1654 0.9862
vn -0.0100 0.1810 0.9834
vn -0.0558 0.9984 0.0000
vn -0.0669 0.9978 0.0000
vn -0.0063 0.1677 -0.9858
vn -0.0027 0.0823 -0.9966
vn -0.0051 0.0916 -0.9958
vn -0.0109 0.1833 -0.9830
vn 0.0002 -0.0006 -1.0000
vn 0.0000 -0.0001 -1.0000
vn -0.0052 -0.1463 -0.9892
vn -0.0053 -0.1460 -0.9893
vn -0.0065 -0.1491 -0.9888
vn -0.0080 -0.1513 -0.9885
vn -0.0380 -0.9993 -0.0000
vn -0.0529 -0.9986 -0.0000
vn -0.0338 -0.1647 0.9858
vn -0.0164 -0.1620 0.9866
vn -0.0215 0.0908 0.9956
vn -0.0049 -0.0027 1.0000
vn -0.0210 0.1885 0.9818
vn -0.1123 0.9937 0.0000
vn -0.0223 0.0899 -0.9957
vn -0.0222 0.1892 -0.9817
vn -0.0049 -0.0027 -1.0000
vn -0.0147 -0.1596 -0.9871
vn -0.0333 -0.1649 -0.9857
vn -0.1284 -0.9917 -0.0000
vn -0.0732 -0.1371 0.9878
vn -0.0415 -0.1645 0.9855
vn -0.0593 0.0483 0.9971
vn -0.0405 0.0088 0.9991
vn -0.0498 0.1007 0.9937
vn -0.1681 0.9858 0.0000
vn -0.0593 0.0483 -0.9971
vn -0.0498 0.1007 -0.9937
vn -0.0405 0.0088 -0.9991
vn -0.0415 -0.1645 -0.9855
vn -0.0732 -0.1371 -0.9878
vn -0.2121 -0.9772 -0.0000
vn -0.0786 -0.0851 0.9933
vn -0.0525 -0.1516 0.9870
vn -0.0716 -0.0275 0.9971
vn -0.0367 0.0070 0.9993
vn -0.0370 0.0392 0.9985
vn -0.0043 0.0224 0.9997
vn -0.1896 0.9819 0.0000
vn -0.0367 0.0070 -0.9993
vn -0.0043 0.0224 -0.9997
vn -0.0370 0.0392 -0.9985
vn -0.0716 -0.0275 -0.9971
vn -0.0786 -0.0851 -0.9933
vn -0.0525 -0.1516 -0.9870
vn -0.9147 -0.3363 -0.2241
vn -0.9386 -0.3450 0.0035
vn -0.9367 -0.3500 0.0032
vn -0.0653 -0.0261 -0.9975
vn -0.0631 -0.0245 -0.9977
vn 0.5720 0.1964 0.7964
vn 0.1058 0.0435 0.9934
vn 0.5903 0.2484 0.7680
vn 0.5618 0.2114 -0.7998
vn 0.9080 0.4182 0.0256
vn 0.9215 0.3882 0.0073
vn 0.5954 0.2506 -0.7633
vn -0.9132 -0.3357 0.2310
vn 0.1058 0.0435 -0.9934
vn -0.0618 -0.0240 0.9978
vn -0.0640 -0.0256 0.9976
vn -0.9386 -0.3450 0.0039
vn -0.0623 -0.0242 -0.9978
vn -0.0611 -0.0237 0.9979
# 279 vertex normals

vt 1.0000 0.2300 0.0000
vt 0.2700 0.2300 0.0000
vt 0.2700 0.0000 0.0000
vt 1.0000 0.0000 0.0000
vt 1.0000 0.5630 0.0000
vt 0.2700 0.5630 0.0000
vt 0.2700 0.5000 0.0000
vt 1.0000 0.5000 0.0000
vt 0.7300 0.0000 0.0000
vt 0.7300 0.2300 0.0000
vt 0.0000 0.2300 0.0000
vt 0.0000 0.0000 0.0000
vt 0.7300 0.5000 0.0000
vt 0.7300 0.5630 0.0000
vt 0.0000 0.5630 0.0000
vt 0.0000 0.5000 0.0000
vt 0.7300 0.7500 0.0000
vt 0.0000 0.7500 0.0000
vt 0.2300 0.0000 0.0000
vt 0.2300 0.7500 0.0000
vt 0.5630 0.0000 0.0000
vt 0.5630 0.7500 0.0000
vt 0.5000 0.7500 0.0000
vt 0.5000 0.0000 0.0000
vt 0.2700 0.7500 0.0000
vt 0.0676 0.0000 0.0000
vt 0.0676 0.5000 0.0000
vt 0.6606 0.0000 0.0000
vt 0.6606 0.7500 0.0000
vt 0.5692 0.7500 0.0000
vt 0.5692 0.0000 0.0000
vt 1.0000 0.7500 0.0000
vt 1.0000 1.0000 0.0000
vt 1.0000 0.7888 0.0000
vt 0.7888 1.0000 0.0000
vt 0.2700 0.7888 0.0000
vt 0.2309 0.6800 0.0000
vt 0.9674 0.6474 0.0000
vt 0.8551 0.6800 0.0000
vt 1.0000 0.6800 0.0000
vt 0.7300 0.7888 0.0000
vt 0.7691 0.6800 0.0000
vt 0.4370 0.0000 0.0000
vt 0.4370 1.0000 0.0000
vt 0.3618 1.0000 0.0000
vt 0.3618 0.0000 0.0000
vt 0.0000 0.6800 0.0000
vt 0.0000 0.7888 0.0000
vt 0.6800 0.0000 0.0000
vt 0.5630 1.0000 0.0000
vt 0.0563 0.8451 0.0000
vt 0.0852 0.7652 0.0000
vt 0.0000 0.7054 0.0000
vt 0.7899 0.5787 0.0000
vt 0.7336 0.7336 0.0000
vt 0.3200 1.0000 0.0000
vt 0.3200 0.0000 0.0000
vt 0.0000 1.0000 0.0000
vt 0.0613 0.9937 0.0000
vt 0.0243 0.9567 0.0000
vt 0.0928 0.0000 0.0000
vt 0.0928 0.7500 0.0000
vt 0.6400 0.7500 0.0000
vt 0.6400 0.0000 0.0000
vt 0.3831 0.0631 0.0000
vt 0.2844 0.0732 0.0000
vt 0.7160 0.5048 0.0000
vt 0.7552 0.4352 0.0000
vt 0.7336 0.7500 0.0000
vt 0.7336 0.0000 0.0000
vt 0.8188 0.4988 0.0000
vt 0.7300 0.6687 0.0000
vt 0.7888 0.7500 0.0000
vt 0.5000 1.0000 0.0000
vt 0.8776 0.4676 0.0000
vt 0.9094 0.5309 0.0000
vt 0.4100 0.7500 0.0000
vt 0.4100 0.0000 0.0000
vt 0.0426 0.6641 0.0000
vt 0.0576 0.6476 0.0000
vt 0.3785 0.0000 0.0000
vt 0.3785 1.0000 0.0000
vt 0.3200 0.7500 0.0000
vt 0.1152 0.7952 0.0000
vt 1.0000 0.3394 0.0000
vt 1.0000 0.4308 0.0000
vt 0.2700 0.4308 0.0000
vt 0.2700 0.3394 0.0000
vt 0.7300 0.4308 0.0000
vt 0.7300 0.3394 0.0000
vt 0.4308 0.0000 0.0000
vt 0.4308 0.7500 0.0000
vt 0.3394 0.7500 0.0000
vt 0.3394 0.0000 0.0000
vt 0.7700 0.7500 0.0000
vt 0.7700 0.0000 0.0000
vt 0.0676 1.0000 0.0000
vt 0.2112 0.0000 0.0000
vt 0.3200 0.5000 0.0000
vt 0.2112 0.5000 0.0000
vt 0.2700 1.0000 0.0000
vt 0.7300 1.0000 0.0000
vt 0.2903 0.9703 0.0000
vt 0.0760 0.8648 0.0000
vt 0.1916 0.9804 0.0000
vt 0.1541 0.0865 0.0000
vt 0.6643 0.5967 0.0000
vt 0.6400 0.6400 0.0000
vt 0.2112 1.0000 0.0000
vt 0.0928 0.0928 0.0000
vt 0.0000 0.3394 0.0000
vt 0.0000 0.4308 0.0000
vt 0.0000 0.6382 0.0000
vt 0.1449 0.6800 0.0000
vt 0.7153 0.0000 0.0000
vt 0.7153 0.7500 0.0000
vt 0.2700 0.2847 0.0000
vt 1.0000 0.2847 0.0000
vt 0.7300 0.2847 0.0000
vt 0.2847 0.7500 0.0000
vt 0.2847 0.0000 0.0000
vt 0.0000 0.2847 0.0000
# 122 texture coords

g Box001
usemtl 3
s off
f 1/1/1 2/2/1 3/3/1 4/4/1 
usemtl 2
s 512
f 5/5/2 6/6/3 7/7/4 8/8/5 
usemtl 3
s off
f 9/9/6 10/10/6 11/11/6 12/12/6 
usemtl 2
s 512
f 13/13/7 14/14/8 15/15/9 16/16/10 
usemtl 3
s off
f 3/9/11 17/17/11 18/18/11 4/12/11 
usemtl 2
s 16
f 19/19/12 20/20/13 21/18/14 22/12/15 
s 64
f 23/21/16 24/22/17 25/23/18 26/24/19 
s 16
f 27/3/20 28/25/21 29/18/22 30/12/23 
usemtl 3
s 128
f 31/26/24 32/27/25 33/16/26 34/12/26 
usemtl 5
s 512
f 35/28/27 36/29/28 37/30/29 38/31/30 
usemtl 2
f 39/15/31 23/21/32 26/24/33 40/16/34 
s 16
f 29/18/22 41/32/35 42/4/36 30/12/23 
usemtl 1
s 32
f 43/33/37 44/34/38 45/35/39 46/33/40 
usemtl 2
s 16
f 47/34/3 48/36/41 49/37/3 50/38/3 
f 51/39/3 50/38/3 49/37/3 
f 52/40/42 44/34/43 53/41/8 54/42/8 
s 2048
f 5/43/44 55/44/45 56/45/46 51/46/47 
s 16
f 57/47/48 58/48/49 59/49/50 
usemtl 5
s 512
f 52/40/51 60/5/52 61/50/53 45/35/54 
usemtl 2
s 16
f 62/48/55 63/51/56 64/52/57 65/53/8 
usemtl 1
s 32
f 47/34/58 66/54/59 67/55/60 68/33/61 
usemtl 2
s 2048
f 69/56/62 70/56/63 71/57/64 50/57/65 
usemtl 1
s 32
f 72/58/66 73/59/66 74/60/67 75/58/68 
usemtl 2
s 16
f 76/61/69 77/62/21 78/63/21 79/64/69 
f 80/65/70 81/66/71 82/67/72 83/68/73 
usemtl 1
s 32
f 75/58/68 74/60/67 63/51/74 84/58/75 
usemtl 2
s 16
f 79/64/69 78/63/21 85/69/21 67/70/20 
f 83/68/73 82/67/72 66/54/76 71/71/77 
usemtl 5
s 512
f 51/39/3 49/37/3 6/6/3 5/5/2 
f 60/5/52 52/40/51 54/72/8 14/14/8 
s 64
f 59/49/78 86/73/79 24/22/17 23/21/16 
s 512
f 57/47/80 59/49/81 23/21/32 39/15/31 
usemtl 2
f 60/5/52 87/8/82 88/74/83 61/50/53 
usemtl 3
f 5/5/2 8/8/5 89/75/84 90/76/85 
s 1
f 91/23/86 92/77/87 89/78/88 8/24/89 
s 512
f 16/16/10 15/15/9 93/79/90 94/80/91 
s off
f 55/44/92 5/43/92 90/81/92 95/82/92 
s 512
f 90/76/85 89/75/84 83/68/93 71/71/94 
s off
f 89/78/95 92/77/95 96/83/95 83/57/95 
s 512
f 94/80/91 93/79/90 64/52/96 97/84/97 
s off
f 95/82/98 90/81/98 71/57/98 70/56/98 
usemtl 5
f 35/85/99 38/86/99 98/87/99 99/88/99 
usemtl 3
s 16
f 100/86/100 101/89/101 102/90/102 103/85/103 
usemtl 2
f 104/91/104 105/92/105 106/93/106 107/94/107 
usemtl 3
s 1024
f 4/4/108 18/32/109 108/95/110 1/96/111 
s 32
f 109/58/112 110/97/112 73/59/66 72/58/66 
s 16
f 34/12/20 33/16/20 77/62/21 76/61/69 
f 111/57/113 112/98/114 81/66/71 80/65/70 
s 1
f 113/83/115 114/56/116 115/99/117 
s 128
f 111/57/118 115/99/119 116/100/120 112/98/121 
usemtl 2
s 16
f 44/34/43 52/40/42 45/35/122 
usemtl 1
s 32
f 68/33/61 27/101/123 48/36/124 47/34/58 
f 43/33/37 117/102/125 53/41/126 44/34/38 
usemtl 2
s 64
f 42/4/127 41/32/128 86/73/79 59/49/78 
usemtl 1
s 32
f 30/58/129 42/4/130 59/49/131 58/48/132 
f 118/58/133 84/58/75 63/51/74 62/48/134 
usemtl 2
s 16
f 50/38/3 71/71/77 66/54/76 47/34/3 
f 119/103/135 97/84/136 120/104/137 121/105/138 
usemtl 5
f 122/106/139 123/107/139 82/67/72 81/66/71 
usemtl 2
f 97/84/136 64/52/57 63/51/56 120/104/137 
usemtl 1
s 32
f 79/108/140 67/55/60 66/54/59 123/107/141 
usemtl 3
s 16
f 124/56/142 119/103/135 121/105/138 125/109/143 
f 31/26/41 122/106/139 81/66/71 112/98/114 
s 128
f 112/98/121 116/100/120 32/27/25 31/26/24 
usemtl 5
s 16
f 121/105/138 120/104/137 74/60/144 73/59/144 
usemtl 3
f 125/109/143 121/105/138 73/59/144 110/97/8 
usemtl 1
s 32
f 76/110/145 79/108/140 123/107/141 122/106/145 
usemtl 3
f 34/12/146 76/110/145 122/106/145 31/26/146 
usemtl 5
s 16
f 74/60/144 120/104/137 63/51/56 
f 66/54/76 82/67/72 123/107/139 
usemtl 7
s 8
f 126/97/147 127/58/148 128/16/148 129/27/147 
usemtl 2
s off
f 40/24/149 26/24/149 25/23/149 130/23/149 
s 16
f 68/4/20 67/70/20 85/69/21 131/32/21 
s 1
f 80/57/150 83/57/151 96/83/152 113/83/115 
usemtl 3
s 16
f 33/16/20 132/58/153 77/62/21 
s 1
f 111/57/117 80/57/150 113/83/115 115/99/117 
usemtl 1
s 8
f 133/56/154 134/109/155 135/100/155 136/99/154 
usemtl 7
f 134/109/155 126/97/147 129/27/147 135/100/155 
usemtl 3
s off
f 17/17/156 9/9/156 12/12/156 18/18/156 
usemtl 2
s 16
f 21/18/14 20/20/13 137/1/157 138/4/158 
f 105/92/105 100/86/100 103/85/103 106/93/106 
s off
f 130/23/159 25/23/159 88/74/159 87/8/159 
s 64
f 25/23/18 24/22/17 61/50/160 88/74/161 
usemtl 5
f 24/22/17 86/73/79 45/35/162 61/50/160 
usemtl 2
f 86/73/79 41/32/128 46/33/163 45/35/162 
s 16
f 41/32/35 29/18/22 43/33/164 46/33/165 
f 28/25/21 117/102/166 43/33/164 29/18/22 
f 131/32/21 85/69/21 84/58/166 118/58/166 
f 85/69/21 78/63/21 75/58/166 84/58/166 
f 78/63/21 77/62/21 72/58/166 75/58/166 
usemtl 3
f 77/62/21 132/58/153 109/58/167 72/58/166 
s 128
f 132/58/168 139/97/169 110/97/170 109/58/168 
f 139/97/169 140/109/171 125/109/172 110/97/170 
f 140/109/171 114/56/173 124/56/174 125/109/172 
s 1
f 114/56/116 113/83/115 119/103/175 124/56/176 
usemtl 2
f 113/83/115 96/83/152 97/84/177 119/103/175 
usemtl 3
s off
f 96/83/178 92/77/178 94/80/178 97/84/178 
s 1
f 92/77/87 91/23/86 16/16/179 94/80/180 
usemtl 5
s 512
f 36/29/28 141/111/181 142/112/182 37/30/29 
usemtl 3
s 1024
f 108/95/110 18/32/109 12/12/183 11/11/184 
usemtl 2
s 2048
f 56/45/46 55/44/45 15/15/185 143/113/186 
usemtl 3
s off
f 55/44/187 95/82/187 93/79/187 15/15/187 
f 95/82/188 70/56/188 64/52/188 93/79/188 
usemtl 2
s 2048
f 70/56/63 69/56/62 65/53/189 64/52/190 
f 50/57/65 51/46/47 56/45/46 69/56/62 
f 69/56/62 56/45/46 143/113/186 65/53/189 
usemtl 3
s 16
f 2/2/191 19/11/12 22/12/15 3/3/192 
usemtl 2
s 512
f 6/6/3 39/15/31 40/16/34 7/7/4 
usemtl 3
s 16
f 138/4/158 137/1/157 10/10/193 9/9/194 
usemtl 2
s 512
f 87/8/82 60/5/52 14/14/8 13/13/7 
usemtl 3
s off
f 22/4/195 21/32/195 17/17/195 3/9/195 
usemtl 2
s 16
f 68/4/20 131/32/21 28/25/21 27/3/20 
f 48/36/41 58/48/49 57/47/48 49/37/3 
f 62/48/55 65/53/8 143/114/8 54/42/8 
f 53/41/8 62/48/55 54/42/8 
usemtl 5
s 512
f 49/37/3 57/47/80 39/15/31 6/6/3 
f 143/113/8 15/15/9 14/14/8 54/72/8 
usemtl 3
s 16
f 104/112/104 107/111/107 99/88/196 98/87/197 
usemtl 5
s off
f 141/111/198 102/90/198 101/89/198 142/112/198 
usemtl 1
s 32
f 30/58/129 58/48/132 48/36/124 27/101/123 
f 118/58/133 62/48/134 53/41/126 117/102/125 
usemtl 3
s off
f 21/32/199 138/4/199 9/9/199 17/17/199 
usemtl 2
s 16
f 131/32/21 118/58/166 117/102/166 28/25/21 
usemtl 7
s 2
f 114/56/200 140/109/201 144/109/202 145/56/203 
usemtl 6
s 1
f 140/109/204 139/97/205 146/97/206 144/109/207 
f 139/97/205 132/58/208 147/58/209 146/97/206 
s 256
f 132/58/210 33/16/210 148/16/211 147/58/211 
s 1
f 33/16/212 32/27/213 149/27/214 148/16/215 
f 32/27/213 116/100/216 150/100/217 149/27/214 
usemtl 7
s 2
f 116/100/218 115/99/219 151/99/220 150/100/221 
s 8
f 115/99/222 114/56/222 145/56/223 151/99/223 
s 2
f 145/56/203 144/109/202 152/109/224 153/56/225 
usemtl 6
s 1
f 144/109/207 146/97/206 154/97/226 152/109/227 
f 146/97/206 147/58/209 155/58/228 154/97/226 
s 256
f 147/58/211 148/16/211 156/16/229 155/58/229 
s 1
f 148/16/215 149/27/214 157/27/230 156/16/231 
f 149/27/214 150/100/217 158/100/232 157/27/230 
usemtl 7
s 2
f 150/100/221 151/99/220 159/99/233 158/100/234 
s 8
f 151/99/223 145/56/223 153/56/235 159/99/235 
s 2
f 152/109/224 160/109/236 161/56/237 153/56/225 
usemtl 6
s 1
f 154/97/226 162/97/238 160/109/239 152/109/227 
f 154/97/226 155/58/228 163/58/240 162/97/238 
s 256
f 156/16/229 164/16/241 163/58/241 155/58/229 
s 1
f 157/27/230 165/27/242 164/16/243 156/16/231 
f 157/27/230 158/100/232 166/100/244 165/27/242 
usemtl 7
s 2
f 158/100/234 159/99/233 167/99/245 166/100/246 
s 8
f 153/56/235 161/56/247 167/99/247 159/99/235 
s 2
f 160/109/236 134/109/248 133/56/249 161/56/237 
f 162/97/250 126/97/251 134/109/248 160/109/236 
f 163/58/252 127/58/253 126/97/251 162/97/250 
s 256
f 128/16/254 127/58/254 163/58/241 164/16/241 
s 2
f 129/27/255 128/16/256 164/16/257 165/27/258 
f 135/100/259 129/27/255 165/27/258 166/100/246 
f 136/99/260 135/100/259 166/100/246 167/99/245 
s 8
f 133/56/154 136/99/154 167/99/247 161/56/247 
usemtl 4
s 512
f 168/115/261 169/116/262 36/29/28 35/28/27 
f 91/23/263 8/24/5 38/31/30 37/30/29 
s off
f 8/8/264 7/7/264 98/87/264 38/86/264 
f 99/88/265 170/117/265 168/118/265 35/85/265 
usemtl 3
s 16
f 87/8/266 13/13/8 101/89/101 100/86/100 
f 171/119/267 172/118/268 103/85/103 102/90/102 
usemtl 2
f 40/24/269 130/23/270 105/92/105 104/91/104 
f 173/120/271 174/121/272 107/94/107 106/93/106 
f 130/23/270 87/8/266 100/86/100 105/92/105 
f 172/118/268 173/120/271 106/93/106 103/85/103 
usemtl 4
s 512
f 169/116/262 175/122/273 141/111/181 36/29/28 
f 16/16/10 91/23/263 37/30/29 142/112/182 
usemtl 3
s 16
f 107/111/107 174/122/272 170/117/274 99/88/196 
f 98/87/197 7/7/3 40/16/269 104/112/104 
usemtl 4
s off
f 175/122/275 171/119/275 102/90/275 141/111/275 
f 13/13/276 16/16/276 142/112/276 101/89/276 
usemtl 5
s 512
f 1/96/261 108/95/277 169/116/262 168/115/261 
s off
f 170/117/278 2/2/278 1/1/278 168/118/278 
usemtl 3
s 16
f 10/10/193 137/1/157 172/118/268 171/119/267 
usemtl 2
f 20/20/13 19/19/12 174/121/272 173/120/271 
f 137/1/157 20/20/13 173/120/271 172/118/268 
usemtl 5
s 512
f 108/95/277 11/11/273 175/122/273 169/116/262 
usemtl 3
s 16
f 174/122/272 19/11/12 2/2/191 170/117/274 
usemtl 5
s off
f 11/11/279 10/10/279 171/119/279 175/122/279 
# 171 polygons - 8 triangles

